<svg xmlns="http://www.w3.org/2000/svg" viewBox="0 0 190 100" preserveAspectRatio="none" aria-hidden="true">
  <!-- Stylized US flag for decorative hero background -->
  <rect width="190" height="7.692" fill="#b22234"/>
  <rect y="7.692" width="190" height="7.692" fill="#ffffff"/>
  <rect y="15.385" width="190" height="7.692" fill="#b22234"/>
  <rect y="23.077" width="190" height="7.692" fill="#ffffff"/>
  <rect y="30.769" width="190" height="7.692" fill="#b22234"/>
  <rect y="38.462" width="190" height="7.692" fill="#ffffff"/>
  <rect y="46.154" width="190" height="7.692" fill="#b22234"/>
  <rect y="53.846" width="190" height="7.692" fill="#ffffff"/>
  <rect y="61.538" width="190" height="7.692" fill="#b22234"/>
  <rect y="69.231" width="190" height="7.692" fill="#ffffff"/>
  <rect y="76.923" width="190" height="7.692" fill="#b22234"/>
  <rect y="84.615" width="190" height="7.692" fill="#ffffff"/>
  <rect y="92.308" width="190" height="7.692" fill="#b22234"/>
  <rect width="76" height="53.846" fill="#3c3b6e"/>
  <g fill="#ffffff" opacity="0.92">
    <circle cx="10" cy="8" r="1.35"/>
    <circle cx="22" cy="8" r="1.35"/>
    <circle cx="34" cy="8" r="1.35"/>
    <circle cx="46" cy="8" r="1.35"/>
    <circle cx="58" cy="8" r="1.35"/>
    <circle cx="16" cy="16" r="1.35"/>
    <circle cx="28" cy="16" r="1.35"/>
    <circle cx="40" cy="16" r="1.35"/>
    <circle cx="52" cy="16" r="1.35"/>
    <circle cx="64" cy="16" r="1.35"/>
    <circle cx="10" cy="24" r="1.35"/>
    <circle cx="22" cy="24" r="1.35"/>
    <circle cx="34" cy="24" r="1.35"/>
    <circle cx="46" cy="24" r="1.35"/>
    <circle cx="58" cy="24" r="1.35"/>
    <circle cx="16" cy="32" r="1.35"/>
    <circle cx="28" cy="32" r="1.35"/>
    <circle cx="40" cy="32" r="1.35"/>
    <circle cx="52" cy="32" r="1.35"/>
    <circle cx="64" cy="32" r="1.35"/>
    <circle cx="10" cy="40" r="1.35"/>
    <circle cx="22" cy="40" r="1.35"/>
    <circle cx="34" cy="40" r="1.35"/>
    <circle cx="46" cy="40" r="1.35"/>
    <circle cx="58" cy="40" r="1.35"/>
    <circle cx="16" cy="48" r="1.35"/>
    <circle cx="28" cy="48" r="1.35"/>
    <circle cx="40" cy="48" r="1.35"/>
    <circle cx="52" cy="48" r="1.35"/>
  </g>
</svg>
